<?xml version="1.0" encoding="UTF-8" standalone="no"?>
<!-- Created with Inkscape (http://www.inkscape.org/) -->

<svg
   width="48.062157mm"
   height="52.192772mm"
   viewBox="0 0 48.062154 52.192773"
   version="1.1"
   id="svg1"
   xml:space="preserve"
   sodipodi:docname="bp_icon_with_text_inkscape.svg"
   inkscape:version="1.4 (e7c3feb1, 2024-10-09)"
   xmlns:inkscape="http://www.inkscape.org/namespaces/inkscape"
   xmlns:sodipodi="http://sodipodi.sourceforge.net/DTD/sodipodi-0.dtd"
   xmlns="http://www.w3.org/2000/svg"
   xmlns:svg="http://www.w3.org/2000/svg"><sodipodi:namedview
     id="namedview1"
     pagecolor="#ffffff"
     bordercolor="#000000"
     borderopacity="0.25"
     inkscape:showpageshadow="2"
     inkscape:pageopacity="0.0"
     inkscape:pagecheckerboard="0"
     inkscape:deskcolor="#d1d1d1"
     inkscape:document-units="mm"
     inkscape:zoom="4.64"
     inkscape:cx="32.650862"
     inkscape:cy="127.37069"
     inkscape:window-width="3360"
     inkscape:window-height="1809"
     inkscape:window-x="0"
     inkscape:window-y="25"
     inkscape:window-maximized="0"
     inkscape:current-layer="layer1" /><defs
     id="defs1"><filter
       id="filter31"
       style="color-interpolation-filters:sRGB"><feOffset
         id="feOffset21"
         dx="3"
         dy="3" /><feGaussianBlur
         id="feGaussianBlur23"
         result="blur"
         stdDeviation="3" /><feFlood
         id="feFlood25"
         result="flood"
         flood-opacity="1"
         flood-color="rgb(0,0,0)" /><feComposite
         id="feComposite27"
         result="composite"
         operator="in"
         in2="SourceGraphic"
         in="flood" /><feBlend
         id="feBlend29"
         mode="normal"
         in2="composite"
         in="blur" /></filter></defs><g
     id="layer1"
     transform="translate(-26.540448,-24.624874)"><g
       id="g1"
       transform="matrix(0.50076697,0,0,0.50076697,5.5295393,-17.986024)"><path
         style="fill:none;stroke:#000000;stroke-width:4;stroke-linecap:round;stroke-linejoin:round;stroke-dasharray:none;stroke-opacity:1;paint-order:stroke markers fill"
         d="m 110.90131,187.29567 c 0,0 -16.706525,0.0793 -19.061452,-0.0694 -2.394556,-0.15116 -3.776212,-0.70261 -5.8488,-2.96515 -1.727574,-1.88589 -1.453316,-5.81022 -1.260707,-6.71037 0.877548,-4.10116 1.008741,-8.79464 0.692569,-3.3373 -0.120235,2.07534 1.175926,-6.12461 1.175926,-6.12461"
         id="path15" /><path
         id="path9"
         style="fill:#000000;fill-opacity:1;stroke:none;stroke-width:0.27;stroke-dasharray:none"
         d="m 98.897126,85.091272 c -10.196982,7.06e-4 -18.463944,8.210387 -18.4677,18.339738 l 19.215861,4.51579 c 0,0 1.796433,0.45188 1.331213,2.12272 -0.46053,1.6539 -2.060799,1.15371 -2.060799,1.15371 l -18.084848,-4.24955 c 0.536234,2.70782 1.680516,5.26059 3.347631,7.46819 l -4.095792,51.44249 c 0,0 -0.148468,0.71964 0.244571,1.32502 0.395354,0.60895 0.878186,0.6491 0.878186,0.6491 l 10.538229,2.23932 c 0,0 0.805549,0.14231 1.390031,-0.21671 0.55027,-0.338 0.670765,-0.94836 0.670765,-0.94836 l 14.357456,-49.67064 c 5.68279,-3.27358 9.18742,-9.29931 9.20393,-15.82489 -3.2e-4,-10.132169 -8.26892,-18.345789 -18.468734,-18.345928 z m -18.468732,18.345928 0.001,-0.006 c 0,0 0.01743,1.19519 -0.001,0.006 z m 6.536344,19.52854 c 0,0 0.82771,0.45597 1.788362,0.8173 1.045926,0.39345 1.927674,0.34777 1.927674,0.34777 l -4.622084,35.7435 c 0,0 -0.75963,-0.002 -1.273421,-0.20639 -0.50316,-0.20003 -0.938039,-0.58098 -0.938039,-0.58098 z" /><path
         style="fill:#000000;fill-opacity:1;stroke:#000000;stroke-width:7;stroke-linecap:round;stroke-linejoin:round;stroke-dasharray:none;stroke-opacity:1;paint-order:stroke fill markers"
         d="m 85.838007,172.30593 1.11482,-7.58076"
         id="path18" /><path
         id="rect4"
         style="fill:#000000;fill-opacity:1;stroke:#000000;stroke-width:0.189708;stroke-linecap:round;stroke-linejoin:round;paint-order:stroke fill markers"
         d="m 57.405685,120.65006 c 0,0 -1.716426,-0.041 -1.742956,1.87504 -0.02741,1.97939 1.742956,1.95967 1.742956,1.95967 h 22.784329 l 0.30236,-3.83471 z m 53.908845,0 -1.06394,3.83471 h 12.07274 c 0,0 1.80857,0.0811 1.82757,-1.95967 0.0184,-1.97861 -1.82757,-1.87504 -1.82757,-1.87504 z" /><path
         id="rect4-4"
         style="fill:#000000;fill-opacity:1;stroke:#000000;stroke-width:0.189708;stroke-linecap:round;stroke-linejoin:round;paint-order:stroke fill markers"
         d="m 57.559445,133.18304 c 0,0 -1.716426,-0.041 -1.742956,1.87504 -0.02741,1.97939 1.742956,1.95967 1.742956,1.95967 h 21.531547 l 0.303392,-3.83471 z m 50.149465,0 -1.06394,3.83471 h 15.83212 c 0,0 1.80857,0.0811 1.82757,-1.95967 0.0184,-1.97861 -1.82757,-1.87504 -1.82757,-1.87504 z" /><path
         id="rect4-6"
         style="fill:#000000;fill-opacity:1;stroke:#000000;stroke-width:0.189708;stroke-linecap:round;stroke-linejoin:round;paint-order:stroke fill markers"
         d="m 57.511976,145.6541 c 0,0 -1.716427,-0.041 -1.742957,1.87505 -0.02741,1.97939 1.742957,1.96069 1.742957,1.96069 h 20.593508 l 0.303392,-3.83574 z" /><path
         id="rect5"
         style="fill:#000000;fill-opacity:1;stroke:none;stroke-width:0.199694;stroke-linecap:round;stroke-linejoin:round;stroke-dasharray:none;stroke-opacity:1;paint-order:stroke fill markers"
         d="m 44.391818,97.869855 c -1.348195,0 -2.43436,1.178691 -2.43436,2.642815 v 64.97027 c 0,1.46412 1.086165,2.64281 2.43436,2.64281 h 32.402063 l 0.45096,-5.49305 H 47.450505 v -59.21717 h 29.562149 a 21.791376,21.008812 0 0 1 0.809045,-5.545675 z m 75.397052,0 a 21.791376,21.008812 0 0 1 0.79872,5.545675 h 11.87047 V 162.6327 H 99.276882 l -1.552046,5.49305 h 37.740314 c 1.3482,0 2.43333,-1.17869 2.43333,-2.64281 v -64.97027 c 0,-1.464124 -1.08513,-2.642815 -2.43333,-2.642815 z" /></g><path
       d="m 35.582652,67.275386 h 1.517082 q 0.718808,0 1.087242,0.111975 0.372046,0.111975 0.599609,0.455124 0.227562,0.339538 0.227562,1.098079 0,0.512918 -0.162545,0.715195 -0.158932,0.202278 -0.632117,0.310641 0.527367,0.119199 0.715196,0.397331 0.187829,0.274519 0.187829,0.845231 v 0.541815 q 0,0.592384 -0.13726,0.87774 -0.133648,0.285356 -0.42984,0.390107 -0.296192,0.104751 -1.213665,0.104751 h -1.759093 z m 1.520694,1.000551 v 1.300356 q 0.09753,-0.0036 0.151708,-0.0036 0.223951,0 0.285356,-0.108363 0.06141,-0.111975 0.06141,-0.632117 0,-0.27452 -0.05057,-0.382883 -0.05057,-0.111975 -0.133648,-0.140872 -0.07947,-0.0289 -0.314253,-0.03251 z m 0,2.210605 v 1.636281 q 0.321477,-0.01084 0.408167,-0.101138 0.0903,-0.0903 0.0903,-0.444289 v -0.545427 q 0,-0.375658 -0.07947,-0.455124 -0.07947,-0.07947 -0.419004,-0.0903 z m 4.023879,-3.211156 v 5.847989 h -1.502633 v -5.847989 z m 3.864947,1.054733 v 4.793256 h -1.484573 l 0.02528,-0.397331 q -0.151708,0.242011 -0.375658,0.364822 -0.220338,0.119199 -0.509306,0.119199 -0.328701,0 -0.545427,-0.115587 -0.216726,-0.115587 -0.321477,-0.307028 -0.101139,-0.191442 -0.126423,-0.397331 -0.02529,-0.209502 -0.02529,-0.827171 v -3.232829 h 1.459288 v 3.261726 q 0,0.559875 0.03251,0.664626 0.03612,0.104751 0.187829,0.104751 0.162545,0 0.191441,-0.108363 0.03251,-0.108363 0.03251,-0.697135 v -3.225605 z m 3.828826,2.481512 H 46.93187 v 1.036673 q 0,0.325089 0.04696,0.419003 0.04696,0.09391 0.180605,0.09391 0.166157,0 0.220338,-0.122811 0.05779,-0.126424 0.05779,-0.484022 v -0.632117 h 1.383434 v 0.353985 q 0,0.444289 -0.05779,0.682687 -0.05418,0.238399 -0.260071,0.509306 -0.20589,0.270908 -0.523754,0.408168 -0.314253,0.133647 -0.79105,0.133647 -0.462349,0 -0.816335,-0.133647 -0.353985,-0.133648 -0.552651,-0.364822 -0.195053,-0.234787 -0.270907,-0.512919 -0.07585,-0.281743 -0.07585,-0.816334 V 69.98446 q 0,-0.628505 0.169768,-0.989715 0.169769,-0.364822 0.556264,-0.556263 0.386494,-0.195054 0.888576,-0.195054 0.614057,0 1.011388,0.234787 0.400943,0.231174 0.559875,0.617669 0.162545,0.382882 0.162545,1.080018 z m -1.4629,-0.780213 v -0.350374 q 0,-0.372046 -0.03973,-0.480409 -0.03973,-0.108363 -0.162544,-0.108363 -0.151708,0 -0.187829,0.09391 -0.03612,0.0903 -0.03612,0.494858 v 0.350374 z m 4.919679,-0.169769 h -1.293132 v -0.260071 q 0,-0.332313 -0.03973,-0.419004 -0.03612,-0.0903 -0.187829,-0.0903 -0.122811,0 -0.184217,0.08308 -0.06141,0.07947 -0.06141,0.242011 0,0.220338 0.0289,0.325089 0.03251,0.101138 0.184217,0.22395 0.15532,0.122811 0.632118,0.357598 0.635729,0.31064 0.834395,0.58516 0.198665,0.274519 0.198665,0.798274 0,0.58516 -0.151708,0.884964 -0.151708,0.296192 -0.509306,0.458737 -0.353986,0.158932 -0.856068,0.158932 -0.556263,0 -0.953594,-0.17338 -0.393719,-0.173381 -0.541815,-0.469573 -0.148096,-0.296193 -0.148096,-0.895801 v -0.231175 h 1.293132 v 0.303417 q 0,0.386495 0.04696,0.502082 0.05057,0.115587 0.195053,0.115587 0.15532,0 0.216726,-0.07585 0.06141,-0.07947 0.06141,-0.328701 0,-0.34315 -0.07947,-0.42984 -0.08308,-0.08669 -0.848844,-0.512918 -0.642953,-0.36121 -0.783825,-0.65379 -0.140872,-0.296192 -0.140872,-0.700748 0,-0.574324 0.151708,-0.845231 0.151708,-0.27452 0.512918,-0.422616 0.364822,-0.148096 0.845231,-0.148096 0.476798,0 0.809111,0.122812 0.335925,0.119199 0.512918,0.317864 0.180605,0.198666 0.216726,0.368435 0.03973,0.169768 0.03973,0.530978 z"
       id="text1"
       style="font-size:7.39758px;font-family:Impact;-inkscape-font-specification:'Impact, Normal';stroke-width:2.16877;stroke-linecap:round;stroke-linejoin:round;paint-order:stroke fill markers"
       transform="skewX(-5.9377344)"
       aria-label="Blues" /><path
       d="m 57.900567,68.141383 h 1.314648 q 0.533301,0 0.818555,0.08372 0.288354,0.08372 0.430981,0.241846 0.145728,0.15813 0.195337,0.384473 0.05271,0.223242 0.05271,0.694531 v 0.437182 q 0,0.480591 -0.09922,0.700733 -0.09922,0.220141 -0.36587,0.337964 -0.263549,0.117822 -0.69143,0.117822 h -0.350366 v 2.021582 h -1.305347 z m 1.305347,0.858863 v 1.277441 q 0.05581,0.0031 0.09612,0.0031 0.179834,0 0.248047,-0.08682 0.07131,-0.08992 0.07131,-0.368969 v -0.412378 q 0,-0.257349 -0.08062,-0.334864 -0.08062,-0.07751 -0.334863,-0.07751 z m 3.097485,0.04651 -0.04961,0.539501 q 0.272852,-0.579809 0.79065,-0.613916 v 1.447974 q -0.344165,0 -0.505396,0.09302 -0.16123,0.09302 -0.198437,0.260449 -0.03721,0.164331 -0.03721,0.762744 v 1.624707 h -1.252637 v -4.114477 z m 3.854028,1.444873 v 1.00769 q 0,0.555005 -0.05581,0.815454 -0.05581,0.257349 -0.238745,0.483691 -0.182934,0.223243 -0.471289,0.331763 -0.285254,0.10542 -0.657324,0.10542 -0.415478,0 -0.703833,-0.08992 -0.288354,-0.09302 -0.449585,-0.275952 -0.15813,-0.186035 -0.226343,-0.446484 -0.06821,-0.26355 -0.06821,-0.787549 v -1.054199 q 0,-0.573609 0.124024,-0.89607 0.124023,-0.322461 0.446484,-0.517798 0.322461,-0.195337 0.824756,-0.195337 0.42168,0 0.722437,0.127124 0.303857,0.124024 0.468188,0.325562 0.164331,0.201538 0.223242,0.415479 0.06201,0.21394 0.06201,0.651123 z M 64.90479,70.181569 q 0,-0.31626 -0.03411,-0.396875 -0.03411,-0.08372 -0.145728,-0.08372 -0.111621,0 -0.148828,0.08372 -0.03721,0.08061 -0.03721,0.396875 v 1.857251 q 0,0.291455 0.03721,0.381372 0.03721,0.08682 0.145728,0.08682 0.111621,0 0.145727,-0.08061 0.03721,-0.08062 0.03721,-0.347265 z m 2.902148,-1.134814 -0.0217,0.390673 q 0.145728,-0.232544 0.347266,-0.347265 0.201538,-0.117823 0.458887,-0.117823 0.502294,0 0.790649,0.465088 0.15813,-0.232544 0.356567,-0.347265 0.198438,-0.117823 0.440284,-0.117823 0.31936,0 0.527099,0.15503 0.21084,0.155029 0.269751,0.381372 0.05891,0.223242 0.05891,0.728637 v 2.923853 h -1.215429 v -2.682007 q 0,-0.527099 -0.03721,-0.651123 -0.03411,-0.127124 -0.164331,-0.127124 -0.133326,0 -0.173633,0.124024 -0.03721,0.124023 -0.03721,0.654223 v 2.682007 h -1.21543 v -2.613794 q 0,-0.604614 -0.03101,-0.725537 -0.02791,-0.120923 -0.16123,-0.120923 -0.08372,0 -0.142627,0.06511 -0.05891,0.06201 -0.06511,0.15503 -0.0062,0.08992 -0.0062,0.387573 v 2.852539 h -1.215429 v -4.114477 z m 4.933033,0 -0.0217,0.362768 q 0.167431,-0.220142 0.368969,-0.328662 0.201538,-0.108521 0.440284,-0.108521 0.291455,0 0.502294,0.15813 0.213941,0.15503 0.266651,0.359668 0.05271,0.204639 0.05271,0.694532 v 1.733227 q 0,0.561206 -0.06821,0.799951 -0.06511,0.235645 -0.272852,0.378272 -0.204638,0.139526 -0.496093,0.139526 -0.232544,0 -0.430982,-0.10852 -0.198437,-0.108521 -0.362768,-0.322461 v 0.942578 H 71.46563 v -4.700488 z m 0.356567,1.196826 q 0,-0.381372 -0.0279,-0.461988 -0.02791,-0.08061 -0.155029,-0.08061 -0.124024,0 -0.161231,0.09302 -0.03411,0.09302 -0.03411,0.449585 v 1.705322 q 0,0.37207 0.03721,0.465088 0.03721,0.09302 0.16123,0.09302 0.120923,0 0.148828,-0.08371 0.03101,-0.08682 0.03101,-0.415479 z m 2.985865,-1.74563 v 0.648022 h 0.337964 v 0.651123 h -0.337964 v 2.201416 q 0,0.406177 0.04031,0.452686 0.04341,0.04651 0.350367,0.04651 v 0.663525 h -0.505396 q -0.427881,0 -0.610815,-0.03411 -0.182935,-0.03721 -0.322461,-0.164332 -0.139527,-0.130224 -0.173633,-0.294555 -0.03411,-0.167432 -0.03411,-0.781348 v -2.089795 h -0.26975 v -0.651123 h 0.26975 v -0.648022 z m 3.450951,2.678906 h -1.621606 v 0.889868 q 0,0.279053 0.04031,0.359668 0.04031,0.08061 0.15503,0.08061 0.142627,0 0.189135,-0.10542 0.04961,-0.10852 0.04961,-0.415478 v -0.542603 h 1.187524 v 0.303858 q 0,0.381372 -0.04961,0.586011 -0.04651,0.204638 -0.223242,0.437182 -0.176734,0.232544 -0.449585,0.350366 -0.269751,0.114722 -0.679029,0.114722 -0.396875,0 -0.700732,-0.114722 -0.303858,-0.114721 -0.47439,-0.313159 -0.167431,-0.201538 -0.232544,-0.440283 -0.06511,-0.241846 -0.06511,-0.700732 v -1.199927 q 0,-0.539502 0.145728,-0.849561 0.145727,-0.313159 0.47749,-0.47749 0.331762,-0.167432 0.762744,-0.167432 0.5271,0 0.868164,0.201539 0.344165,0.198437 0.480591,0.5302 0.139526,0.328662 0.139526,0.927075 z M 78.277617,70.50713 v -0.300756 q 0,-0.319361 -0.03411,-0.412378 -0.03411,-0.09302 -0.139526,-0.09302 -0.130225,0 -0.16123,0.08061 -0.03101,0.07752 -0.03101,0.424781 v 0.300756 z m 2.917651,-1.460375 -0.04961,0.539501 q 0.272852,-0.579809 0.79065,-0.613916 v 1.447974 q -0.344165,0 -0.505396,0.09302 -0.16123,0.09302 -0.198437,0.260449 -0.03721,0.164331 -0.03721,0.762744 v 1.624707 h -1.252637 v -4.114477 z"
       id="text2"
       style="font-size:6.35px;font-family:Impact;-inkscape-font-specification:'Impact, Normal';stroke-width:1.54272;stroke-linecap:round;stroke-linejoin:round;paint-order:stroke fill markers"
       transform="skewX(-6.0693527)"
       aria-label="Prompter" /><g
       id="layer1-5"
       transform="matrix(0.01887752,0,0,0.01887752,64.986287,58.215062)"><path
         style="fill:#000000;stroke:#000000;stroke-width:5.36331;stroke-linecap:butt;stroke-linejoin:miter;stroke-miterlimit:4;stroke-dasharray:none;stroke-opacity:1"
         d="M 42.119158,63.618921 V 233.90407 H 84.690447 V 120.38063 c 42.571283,42.57129 0,0 42.571283,42.57129 l 28.38086,-28.38086 -2e-5,-56.761781 -28.38086,28.380871 -42.571284,-42.571293 z"
         id="path12" /><g
         transform="translate(0,-0.77008307)"
         id="g876"><path
           id="path868"
           d="M 240.78517,64.388938 212.4043,92.769783 v 56.761707 l 85.14259,-85.142552 z"
           style="fill:#000000;stroke:#000000;stroke-width:5.36331;stroke-linecap:butt;stroke-linejoin:miter;stroke-miterlimit:4;stroke-dasharray:none;stroke-opacity:1" /><path
           style="fill:#000000;stroke:#000000;stroke-width:5.36331;stroke-linecap:butt;stroke-linejoin:miter;stroke-miterlimit:4;stroke-dasharray:none;stroke-opacity:1"
           d="m 212.40431,206.29322 28.38087,28.38087 h 56.76172 l -85.14259,-85.1426 z"
           id="path868-4" /></g><path
         style="fill:none;stroke:#000000;stroke-width:9.99207;stroke-linecap:butt;stroke-linejoin:miter;stroke-miterlimit:4;stroke-dasharray:none;stroke-opacity:1"
         d="M 169.69526,60.765186 V 173.79961 c 0,16.95518 -5.58526,28.2586 -23.58198,28.2586 H 94.708923"
         id="path22" /><path
         id="path22-6"
         d="m 198.75671,60.947113 0.23305,117.553247 c -0.11652,31.35619 -18.10693,53.41366 -47.30595,53.41366 l -57.038251,-0.14261"
         style="fill:none;stroke:#000000;stroke-width:10;stroke-linecap:butt;stroke-linejoin:miter;stroke-miterlimit:4;stroke-dasharray:none;stroke-opacity:1" /></g></g></svg>
