<?xml version="1.0" encoding="UTF-8" standalone="no"?>
<!-- Created with Inkscape (http://www.inkscape.org/) -->

<svg
   width="159.57785mm"
   height="66.458145mm"
   viewBox="0 0 159.57784 66.458146"
   version="1.1"
   id="svg1"
   xml:space="preserve"
   xmlns="http://www.w3.org/2000/svg"
   xmlns:svg="http://www.w3.org/2000/svg"><defs
     id="defs1"><filter
       id="filter31"
       style="color-interpolation-filters:sRGB"><feOffset
         id="feOffset21"
         dx="3"
         dy="3" /><feGaussianBlur
         id="feGaussianBlur23"
         result="blur"
         stdDeviation="3" /><feFlood
         id="feFlood25"
         result="flood"
         flood-opacity="1"
         flood-color="rgb(0,0,0)" /><feComposite
         id="feComposite27"
         result="composite"
         operator="in"
         in2="SourceGraphic"
         in="flood" /><feBlend
         id="feBlend29"
         mode="normal"
         in2="composite"
         in="blur" /></filter></defs><g
     id="layer1"
     transform="translate(-26.540448,-24.624874)"><g
       id="g1"
       transform="matrix(0.50076697,0,0,0.50076697,5.5295393,-17.986024)"><path
         style="fill:none;stroke:#000000;stroke-width:4;stroke-linecap:round;stroke-linejoin:round;stroke-dasharray:none;stroke-opacity:1;paint-order:stroke markers fill"
         d="m 110.90131,187.29567 c 0,0 -16.706525,0.0793 -19.061452,-0.0694 -2.394556,-0.15116 -3.776212,-0.70261 -5.8488,-2.96515 -1.727574,-1.88589 -1.453316,-5.81022 -1.260707,-6.71037 0.877548,-4.10116 1.008741,-8.79464 0.692569,-3.3373 -0.120235,2.07534 1.175926,-6.12461 1.175926,-6.12461"
         id="path15" /><path
         id="path9"
         style="fill:#000000;fill-opacity:1;stroke:none;stroke-width:0.27;stroke-dasharray:none"
         d="m 98.897126,85.091272 c -10.196982,7.06e-4 -18.463944,8.210387 -18.4677,18.339738 l 19.215861,4.51579 c 0,0 1.796433,0.45188 1.331213,2.12272 -0.46053,1.6539 -2.060799,1.15371 -2.060799,1.15371 l -18.084848,-4.24955 c 0.536234,2.70782 1.680516,5.26059 3.347631,7.46819 l -4.095792,51.44249 c 0,0 -0.148468,0.71964 0.244571,1.32502 0.395354,0.60895 0.878186,0.6491 0.878186,0.6491 l 10.538229,2.23932 c 0,0 0.805549,0.14231 1.390031,-0.21671 0.55027,-0.338 0.670765,-0.94836 0.670765,-0.94836 l 14.357456,-49.67064 c 5.68279,-3.27358 9.18742,-9.29931 9.20393,-15.82489 -3.2e-4,-10.132169 -8.26892,-18.345789 -18.468734,-18.345928 z m -18.468732,18.345928 0.001,-0.006 c 0,0 0.01743,1.19519 -0.001,0.006 z m 6.536344,19.52854 c 0,0 0.82771,0.45597 1.788362,0.8173 1.045926,0.39345 1.927674,0.34777 1.927674,0.34777 l -4.622084,35.7435 c 0,0 -0.75963,-0.002 -1.273421,-0.20639 -0.50316,-0.20003 -0.938039,-0.58098 -0.938039,-0.58098 z" /><path
         style="fill:#000000;fill-opacity:1;stroke:#000000;stroke-width:7;stroke-linecap:round;stroke-linejoin:round;stroke-dasharray:none;stroke-opacity:1;paint-order:stroke fill markers"
         d="m 85.838007,172.30593 1.11482,-7.58076"
         id="path18" /><path
         id="rect4"
         style="fill:#000000;fill-opacity:1;stroke:#000000;stroke-width:0.189708;stroke-linecap:round;stroke-linejoin:round;paint-order:stroke fill markers"
         d="m 57.405685,120.65006 c 0,0 -1.716426,-0.041 -1.742956,1.87504 -0.02741,1.97939 1.742956,1.95967 1.742956,1.95967 h 22.784329 l 0.30236,-3.83471 z m 53.908845,0 -1.06394,3.83471 h 12.07274 c 0,0 1.80857,0.0811 1.82757,-1.95967 0.0184,-1.97861 -1.82757,-1.87504 -1.82757,-1.87504 z" /><path
         id="rect4-4"
         style="fill:#000000;fill-opacity:1;stroke:#000000;stroke-width:0.189708;stroke-linecap:round;stroke-linejoin:round;paint-order:stroke fill markers"
         d="m 57.559445,133.18304 c 0,0 -1.716426,-0.041 -1.742956,1.87504 -0.02741,1.97939 1.742956,1.95967 1.742956,1.95967 h 21.531547 l 0.303392,-3.83471 z m 50.149465,0 -1.06394,3.83471 h 15.83212 c 0,0 1.80857,0.0811 1.82757,-1.95967 0.0184,-1.97861 -1.82757,-1.87504 -1.82757,-1.87504 z" /><path
         id="rect4-6"
         style="fill:#000000;fill-opacity:1;stroke:#000000;stroke-width:0.189708;stroke-linecap:round;stroke-linejoin:round;paint-order:stroke fill markers"
         d="m 57.511976,145.6541 c 0,0 -1.716427,-0.041 -1.742957,1.87505 -0.02741,1.97939 1.742957,1.96069 1.742957,1.96069 h 20.593508 l 0.303392,-3.83574 z" /><path
         id="rect5"
         style="fill:#000000;fill-opacity:1;stroke:none;stroke-width:0.199694;stroke-linecap:round;stroke-linejoin:round;stroke-dasharray:none;stroke-opacity:1;paint-order:stroke fill markers"
         d="m 44.391818,97.869855 c -1.348195,0 -2.43436,1.178691 -2.43436,2.642815 v 64.97027 c 0,1.46412 1.086165,2.64281 2.43436,2.64281 h 32.402063 l 0.45096,-5.49305 H 47.450505 v -59.21717 h 29.562149 a 21.791376,21.008812 0 0 1 0.809045,-5.545675 z m 75.397052,0 a 21.791376,21.008812 0 0 1 0.79872,5.545675 h 11.87047 V 162.6327 H 99.276882 l -1.552046,5.49305 h 37.740314 c 1.3482,0 2.43333,-1.17869 2.43333,-2.64281 v -64.97027 c 0,-1.464124 -1.08513,-2.642815 -2.43333,-2.642815 z" /></g><text
       xml:space="preserve"
       style="font-style:normal;font-variant:normal;font-weight:normal;font-stretch:normal;font-size:28.2222px;font-family:Impact;-inkscape-font-specification:'Impact, Normal';font-variant-ligatures:normal;font-variant-caps:normal;font-variant-numeric:normal;font-variant-east-asian:normal;text-align:start;writing-mode:lr-tb;direction:ltr;text-anchor:start;fill:#000000;stroke-width:7;stroke-linecap:round;stroke-linejoin:round;paint-order:stroke fill markers"
       x="83.876671"
       y="52.98315"
       id="text1"
       transform="skewX(-5.9377344)"><tspan
         id="tspan1"
         style="font-style:normal;font-variant:normal;font-weight:normal;font-stretch:normal;font-size:28.2222px;font-family:Impact;-inkscape-font-specification:'Impact, Normal';font-variant-ligatures:normal;font-variant-caps:normal;font-variant-numeric:normal;font-variant-east-asian:normal;stroke-width:7"
         x="83.876671"
         y="52.98315">Blues</tspan></text><text
       xml:space="preserve"
       style="font-style:normal;font-variant:normal;font-weight:normal;font-stretch:normal;font-size:28.2222px;font-family:Impact;-inkscape-font-specification:'Impact, Normal';font-variant-ligatures:normal;font-variant-caps:normal;font-variant-numeric:normal;font-variant-east-asian:normal;text-align:start;writing-mode:lr-tb;direction:ltr;text-anchor:start;fill:#000000;stroke-width:7;stroke-linecap:round;stroke-linejoin:round;paint-order:stroke fill markers"
       x="84.176582"
       y="76.713463"
       id="text2"
       transform="skewX(-6.0693527)"><tspan
         id="tspan2"
         style="font-style:normal;font-variant:normal;font-weight:normal;font-stretch:normal;font-size:28.2222px;font-family:Impact;-inkscape-font-specification:'Impact, Normal';font-variant-ligatures:normal;font-variant-caps:normal;font-variant-numeric:normal;font-variant-east-asian:normal;stroke-width:7"
         x="84.176582"
         y="76.713463">Prompter</tspan></text><text
       xml:space="preserve"
       style="font-style:normal;font-variant:normal;font-weight:normal;font-stretch:normal;font-size:7.05556px;font-family:Impact;-inkscape-font-specification:'Impact, Normal';font-variant-ligatures:normal;font-variant-caps:normal;font-variant-numeric:normal;font-variant-east-asian:normal;text-align:start;writing-mode:lr-tb;direction:ltr;text-anchor:start;fill:#000000;stroke:#000000;stroke-width:0.1;stroke-linecap:round;stroke-linejoin:round;stroke-dasharray:none;stroke-opacity:1;paint-order:stroke fill markers"
       x="26.63179"
       y="88.906853"
       id="text3"><tspan
         id="tspan3"
         style="font-style:normal;font-variant:normal;font-weight:normal;font-stretch:normal;font-size:7.05556px;font-family:Impact;-inkscape-font-specification:'Impact, Normal';font-variant-ligatures:normal;font-variant-caps:normal;font-variant-numeric:normal;font-variant-east-asian:normal;stroke-width:0.1;stroke-dasharray:none"
         x="26.63179"
         y="88.906853">YOUR SONGS.</tspan></text><text
       xml:space="preserve"
       style="font-style:normal;font-variant:normal;font-weight:normal;font-stretch:normal;font-size:7.05556px;font-family:Impact;-inkscape-font-specification:'Impact, Normal';font-variant-ligatures:normal;font-variant-caps:normal;font-variant-numeric:normal;font-variant-east-asian:normal;text-align:start;writing-mode:lr-tb;direction:ltr;text-anchor:start;fill:#000000;stroke:#000000;stroke-width:0.1;stroke-linecap:round;stroke-linejoin:round;stroke-dasharray:none;stroke-opacity:1;paint-order:stroke fill markers"
       x="89.021889"
       y="88.906853"
       id="text3-3"><tspan
         id="tspan3-8"
         style="font-style:normal;font-variant:normal;font-weight:normal;font-stretch:normal;font-size:7.05556px;font-family:Impact;-inkscape-font-specification:'Impact, Normal';font-variant-ligatures:normal;font-variant-caps:normal;font-variant-numeric:normal;font-variant-east-asian:normal;stroke-width:0.1;stroke-dasharray:none"
         x="89.021889"
         y="88.906853">YOUR STAGE.</tspan></text><text
       xml:space="preserve"
       style="font-style:normal;font-variant:normal;font-weight:normal;font-stretch:normal;font-size:7.05556px;font-family:Impact;-inkscape-font-specification:'Impact, Normal';font-variant-ligatures:normal;font-variant-caps:normal;font-variant-numeric:normal;font-variant-east-asian:normal;text-align:start;writing-mode:lr-tb;direction:ltr;text-anchor:start;fill:#000000;stroke:#000000;stroke-width:0.1;stroke-linecap:round;stroke-linejoin:round;stroke-dasharray:none;stroke-opacity:1;paint-order:stroke fill markers"
       x="149.52715"
       y="88.761124"
       id="text3-3-2"><tspan
         id="tspan3-8-6"
         style="font-style:normal;font-variant:normal;font-weight:normal;font-stretch:normal;font-size:7.05556px;font-family:Impact;-inkscape-font-specification:'Impact, Normal';font-variant-ligatures:normal;font-variant-caps:normal;font-variant-numeric:normal;font-variant-east-asian:normal;stroke-width:0.1;stroke-dasharray:none"
         x="149.52715"
         y="88.761124">NO WORRIES!</tspan></text><g
       id="layer1-5"
       transform="matrix(0.01887752,0,0,0.01887752,64.986287,58.215062)"><path
         style="fill:#000000;stroke:#000000;stroke-width:5.36331;stroke-linecap:butt;stroke-linejoin:miter;stroke-miterlimit:4;stroke-dasharray:none;stroke-opacity:1"
         d="M 42.119158,63.618921 V 233.90407 H 84.690447 V 120.38063 c 42.571283,42.57129 0,0 42.571283,42.57129 l 28.38086,-28.38086 -2e-5,-56.761781 -28.38086,28.380871 -42.571284,-42.571293 z"
         id="path12" /><g
         transform="translate(0,-0.77008307)"
         id="g876"><path
           id="path868"
           d="M 240.78517,64.388938 212.4043,92.769783 v 56.761707 l 85.14259,-85.142552 z"
           style="fill:#000000;stroke:#000000;stroke-width:5.36331;stroke-linecap:butt;stroke-linejoin:miter;stroke-miterlimit:4;stroke-dasharray:none;stroke-opacity:1" /><path
           style="fill:#000000;stroke:#000000;stroke-width:5.36331;stroke-linecap:butt;stroke-linejoin:miter;stroke-miterlimit:4;stroke-dasharray:none;stroke-opacity:1"
           d="m 212.40431,206.29322 28.38087,28.38087 h 56.76172 l -85.14259,-85.1426 z"
           id="path868-4" /></g><path
         style="fill:none;stroke:#000000;stroke-width:9.99207;stroke-linecap:butt;stroke-linejoin:miter;stroke-miterlimit:4;stroke-dasharray:none;stroke-opacity:1"
         d="M 169.69526,60.765186 V 173.79961 c 0,16.95518 -5.58526,28.2586 -23.58198,28.2586 H 94.708923"
         id="path22" /><path
         id="path22-6"
         d="m 198.75671,60.947113 0.23305,117.553247 c -0.11652,31.35619 -18.10693,53.41366 -47.30595,53.41366 l -57.038251,-0.14261"
         style="fill:none;stroke:#000000;stroke-width:10;stroke-linecap:butt;stroke-linejoin:miter;stroke-miterlimit:4;stroke-dasharray:none;stroke-opacity:1" /></g></g><path
     style="fill:#000000;stroke:#000000;stroke-width:0.700308;stroke-linecap:butt;stroke-linejoin:round;stroke-dasharray:none;stroke-opacity:1;paint-order:stroke fill markers"
     d="M 0,56.708 H 159.57785"
     id="path2" /><path
     style="fill:#000000;stroke:#000000;stroke-width:0.700308;stroke-linecap:butt;stroke-linejoin:round;stroke-dasharray:none;stroke-opacity:1;paint-order:stroke fill markers"
     d="M 0,66.107991 H 159.57785"
     id="path2-8" /></svg>
